# xmcd CD database file
#
# Track frame offsets:
#	150
#	17599
#	34773
#	52452
#	70231
#	85073
#	104027
#	119301
#	138510
#	154042
#	169886
#	185820
#	204707
#	222421
#
# Disc length: 3250 seconds
#
# Revision: 0
# Processed by: cddbd v1.5.1PL2 Copyright (c) Steve Scherf et al.
# Submitted via: CDex 1.51
#
DISCID=d70cb00e
DTITLE=LeAnn Rimes - Whatever We Wanna
DYEAR=2006
DGENRE=Country
TTITLE0=Satisfied
TTITLE1=And It Feels Like
TTITLE2=For The First Time
TTITLE3=Save Myself
TTITLE4=A Little More Time
TTITLE5=Rumour 'bout a Revolution
TTITLE6=Destructive
TTITLE7=Strong
TTITLE8=Whatever We Wanna
TTITLE9=Headphones
TTITLE10=Long Night
TTITLE11=This Life
TTITLE12=Break Me Down
TTITLE13=Some People
EXTD=YEAR: 2006
EXTT0=
EXTT1=
EXTT2=
EXTT3=
EXTT4=
EXTT5=
EXTT6=
EXTT7=
EXTT8=
EXTT9=
EXTT10=
EXTT11=
EXTT12=
EXTT13=
PLAYORDER=
